 <svg  version="1.0" xmlns="http://www.w3.org/2000/svg"  width="300.000000pt" height="300.000000pt" viewBox="0 0 300.000000 300.000000"  preserveAspectRatio="xMidYMid meet">  <g transform="translate(0.000000,300.000000) scale(0.100000,-0.100000)" fill="#912238" stroke="none"> <path d="M1354 2359 c-180 -30 -338 -113 -475 -249 -105 -105 -155 -180 -205 -308 -61 -155 -77 -313 -48 -471 66 -354 318 -623 667 -711 124 -31 290 -31 411 0 157 39 284 108 409 220 59 53 197 249 197 280 0 9 4 20 9 25 27 30 71 236 71 336 0 149 -60 352 -142 479 -64 100 -207 236 -308 293 -178 99 -393 138 -586 106z m366 -90 c416 -119 668 -548 566 -960 -60 -242 -208 -429 -423 -538 -129 -64 -215 -85 -363 -85 -98 0 -142 5 -203 22 -423 119 -680 537 -587 956 72 325 342 577 675 630 69 11 261 -3 335 -25z m215 -1519 c-4 -6 -11 -8 -16 -5 -5 4 -9 2 -9 -2 0 -9 -61 -35 -67 -29 -2 2 10 9 27 16 16 7 30 16 30 21 0 5 9 9 21 9 11 0 17 -5 14 -10z"/> <path d="M1380 2248 c-209 -34 -400 -160 -527 -348 -46 -69 -91 -192 -109 -299 -53 -306 112 -631 398 -785 109 -59 224 -87 353 -88 185 0 343 55 485 170 158 127 251 296 281 510 41 295 -134 622 -408 761 -149 76 -317 104 -473 79z m270 -42 c193 -48 324 -132 434 -281 94 -127 135 -244 143 -401 7 -136 -10 -219 -70 -344 -130 -275 -403 -435 -707 -417 -133 8 -302 72 -395 148 -50 42 -97 90 -92 95 3 3 34 2 69 -4 95 -14 308 -4 360 17 28 11 61 24 68 26 18 4 74 46 86 64 8 11 19 21 23 21 5 0 21 -20 36 -44 59 -94 182 -110 335 -44 46 20 130 102 130 127 0 20 -34 51 -56 51 -7 0 -34 -17 -61 -38 -68 -54 -118 -75 -157 -68 -27 5 -35 13 -46 46 -11 34 -10 48 6 105 10 37 35 97 54 133 l35 67 100 6 c109 6 124 10 173 47 65 49 81 130 39 193 -25 37 -49 47 -120 48 -47 1 -167 -38 -193 -63 -96 -93 -122 -105 -201 -91 -34 6 -43 20 -49 80 -2 22 -8 51 -13 65 -5 14 -9 32 -9 40 0 8 -4 38 -7 65 -6 42 -3 56 15 88 31 52 25 131 -14 181 -35 46 -101 76 -139 63 -29 -10 -57 -4 -57 12 0 5 8 12 18 14 38 10 210 5 262 -7z m-284 -51 c14 -9 34 -34 43 -56 9 -21 22 -39 29 -39 16 0 15 4 -8 50 -11 22 -20 42 -20 45 0 14 61 2 91 -18 71 -47 88 -141 35 -196 l-25 -26 18 -72 19 -72 -77 -16 c-42 -9 -112 -25 -156 -35 -44 -10 -94 -21 -111 -25 l-32 -6 -16 74 c-16 69 -18 74 -51 86 -37 13 -58 43 -70 99 -12 57 44 142 95 142 4 0 8 -21 7 -46 -1 -30 3 -48 11 -51 8 -3 12 9 12 42 0 90 58 150 137 142 24 -3 55 -12 69 -22z m-366 -186 c0 -55 25 -104 71 -141 39 -31 68 -98 76 -173 2 -16 8 -42 14 -57 9 -23 4 -39 -43 -135 -29 -59 -66 -136 -81 -170 -18 -43 -33 -64 -49 -68 -43 -12 -84 -34 -103 -55 -10 -11 -22 -20 -26 -20 -13 0 -49 90 -70 175 -32 134 -23 281 24 411 24 65 76 164 87 164 6 0 10 5 10 11 0 14 70 99 81 99 5 0 9 -18 9 -41z m554 -235 c3 -9 6 -29 6 -44 0 -34 2 -33 -195 -74 -67 -14 -128 -27 -135 -30 -8 -3 -20 -2 -27 2 -14 9 -29 82 -17 83 5 0 16 2 24 4 8 2 38 8 65 13 103 20 249 52 253 57 10 9 20 5 26 -11z m572 -35 c40 -37 30 -109 -20 -151 -48 -40 -179 -57 -254 -34 -17 6 -27 -7 -65 -81 -73 -142 -95 -251 -64 -313 36 -72 166 -49 269 48 27 25 62 25 52 -1 -8 -23 -101 -88 -154 -108 -68 -26 -174 -26 -216 0 -87 53 -84 195 9 381 23 47 43 88 45 91 5 11 -69 16 -117 8 -36 -6 -57 -18 -97 -57 -28 -27 -74 -60 -102 -73 -56 -26 -65 -39 -28 -39 78 0 176 -84 176 -151 0 -36 -40 -94 -83 -123 -76 -49 -136 -61 -307 -61 -165 0 -235 12 -266 46 -38 42 32 114 103 107 31 -4 33 -2 49 47 9 27 46 112 82 187 l65 137 46 7 c25 4 53 10 62 15 20 10 32 0 20 -15 -58 -70 -208 -393 -226 -486 -4 -20 -1 -21 56 -16 173 17 299 82 299 156 0 52 -106 114 -194 115 -22 0 -41 5 -43 11 -6 18 26 44 55 44 19 0 46 17 89 56 69 61 108 117 105 149 -1 17 7 23 46 32 26 6 49 9 52 7 2 -3 3 -19 2 -37 l-2 -32 95 1 95 1 59 56 c106 101 244 135 307 76z m-700 -121 c4 -6 2 -14 -4 -16 -7 -2 -10 -7 -7 -12 5 -9 -94 -104 -101 -97 -8 7 55 125 69 131 21 8 36 6 43 -6z m227 -74 c12 -4 9 -20 -20 -87 -20 -45 -39 -92 -44 -105 l-9 -23 -26 30 c-14 17 -39 39 -55 48 -16 10 -29 20 -29 23 0 4 30 32 66 63 63 55 84 64 117 51z m-322 -218 c44 -18 89 -54 89 -70 0 -39 -126 -103 -210 -108 -50 -3 -55 -1 -52 17 5 35 54 150 70 163 21 16 62 15 103 -2z"/> <path d="M1447 1923 c-3 -21 -9 -49 -13 -62 -5 -18 -4 -23 7 -19 16 5 40 83 32 103 -9 26 -20 16 -26 -22z"/> <path d="M1310 1898 c0 -49 10 -78 27 -78 9 0 12 7 9 18 -2 9 -7 32 -11 49 -9 45 -25 52 -25 11z"/> <path d="M1165 1890 c-10 -17 45 -100 67 -100 16 0 7 27 -17 50 -14 13 -25 29 -25 36 0 17 -17 27 -25 14z"/> <path d="M2022 1687 c-18 -6 -63 -38 -100 -73 l-67 -62 29 -7 c44 -12 160 13 184 38 26 29 35 62 23 85 -14 26 -30 30 -69 19z m26 -59 c-2 -17 -14 -27 -42 -36 -52 -17 -58 -7 -18 29 40 35 65 38 60 7z"/> <path d="M993 1160 c-28 -11 -30 -41 -5 -63 24 -22 31 -21 30 1 0 9 3 29 7 45 8 29 3 31 -32 17z"/> </g> </svg> 